<?xml version="1.0" standalone="no"?>
<!DOCTYPE svg PUBLIC "-//W3C//DTD SVG 20010904//EN"
 "http://www.w3.org/TR/2001/REC-SVG-20010904/DTD/svg10.dtd">
<svg version="1.0" xmlns="http://www.w3.org/2000/svg"
 width="1034.000000pt" height="1034.000000pt" viewBox="0 0 1034.000000 1034.000000"
 preserveAspectRatio="xMidYMid meet">
<metadata>
Created by potrace 1.14, written by Peter Selinger 2001-2017
</metadata>
<g transform="translate(0.000000,1034.000000) scale(0.100000,-0.100000)"
fill="#000000" stroke="none">
<path d="M7299 9355 c-2 -2 -42 -6 -89 -9 -47 -3 -101 -8 -120 -10 -19 -3 -53
-8 -75 -11 -76 -9 -160 -22 -160 -25 0 -1 -15 -3 -34 -6 -61 -8 -269 -63 -373
-99 -57 -20 -111 -38 -120 -40 -58 -13 -389 -190 -463 -247 -5 -4 -44 -34 -85
-65 -41 -32 -85 -67 -96 -78 -12 -11 -50 -47 -85 -81 -35 -33 -89 -89 -119
-123 -30 -35 -65 -74 -77 -87 -13 -12 -23 -27 -23 -31 0 -4 -16 -26 -35 -48
-19 -22 -35 -43 -35 -47 0 -3 -6 -13 -13 -20 -11 -11 -29 -41 -83 -133 -32
-54 -64 -120 -64 -132 0 -7 -4 -13 -9 -13 -5 0 -19 -28 -31 -62 -13 -35 -26
-67 -30 -73 -11 -15 -72 -207 -95 -295 -1 -3 -5 -25 -10 -50 -5 -25 -9 -47
-10 -50 -9 -46 -17 -87 -21 -118 -3 -20 -7 -48 -9 -62 -28 -184 -28 -583 -1
-750 2 -14 7 -47 11 -73 8 -57 9 -67 24 -127 7 -25 14 -56 17 -70 6 -32 62
-209 73 -235 5 -11 18 -40 28 -65 58 -143 223 -422 295 -501 13 -14 36 -42 51
-62 36 -48 190 -202 246 -247 24 -19 48 -40 55 -45 6 -6 34 -26 61 -45 28 -18
52 -36 55 -40 6 -6 56 -40 85 -56 11 -6 36 -21 55 -32 39 -25 275 -142 284
-142 4 0 25 -9 49 -19 47 -22 182 -71 210 -76 9 -2 22 -7 27 -10 5 -3 18 -8
27 -10 10 -2 72 -18 138 -35 116 -30 140 -35 188 -44 47 -9 214 -36 257 -42
25 -3 56 -8 70 -10 24 -5 37 -7 130 -19 25 -4 59 -9 75 -11 17 -3 44 -7 60 -9
80 -11 170 -24 210 -31 32 -5 80 -11 155 -19 25 -3 56 -8 70 -11 14 -4 39 -8
55 -10 17 -2 45 -6 64 -10 19 -3 52 -8 74 -10 22 -3 49 -10 59 -15 10 -5 18
-8 18 -5 0 2 30 -4 68 -15 37 -11 74 -22 82 -24 19 -4 85 -29 125 -46 17 -7
32 -13 35 -14 11 -3 97 -47 130 -66 119 -71 238 -180 309 -282 34 -50 101
-180 101 -196 0 -5 5 -22 12 -38 6 -15 12 -30 13 -33 0 -3 4 -14 7 -25 4 -11
9 -36 12 -55 3 -19 8 -46 12 -60 10 -42 13 -334 3 -386 -5 -27 -11 -62 -14
-79 -5 -35 -13 -70 -15 -70 -1 0 -3 -8 -5 -17 -6 -33 -28 -93 -38 -105 -5 -7
-7 -13 -3 -13 4 0 0 -10 -9 -23 -8 -13 -13 -26 -10 -29 3 -3 -1 -11 -10 -18
-8 -7 -15 -17 -15 -22 0 -12 -81 -132 -92 -136 -4 -2 -8 -8 -8 -12 0 -13 -98
-108 -160 -154 -30 -22 -57 -43 -60 -46 -15 -15 -194 -104 -245 -121 -22 -8
-43 -18 -47 -24 -4 -5 -8 -7 -8 -3 0 4 -12 3 -27 -3 -37 -14 -247 -66 -298
-74 -22 -3 -60 -8 -85 -11 -25 -3 -56 -7 -70 -10 -135 -24 -555 -23 -748 2
-26 3 -58 7 -72 9 -14 1 -45 6 -70 10 -25 4 -54 8 -65 10 -11 1 -33 5 -50 8
-40 9 -83 17 -120 23 -49 8 -183 44 -305 81 -104 32 -154 50 -315 115 -84 34
-239 110 -259 127 -10 9 -20 14 -23 13 -6 -5 -227 126 -252 149 -11 11 -23 19
-26 19 -6 -1 -136 89 -145 100 -3 3 -21 17 -40 30 -19 14 -45 34 -58 45 -12
11 -32 28 -42 38 -25 21 -32 21 -50 -1 -8 -10 -37 -45 -65 -77 -27 -33 -54
-66 -60 -73 -5 -7 -17 -21 -25 -30 -9 -9 -40 -46 -70 -82 -30 -36 -61 -72 -70
-81 -8 -9 -31 -36 -51 -60 -65 -79 -220 -263 -247 -295 -15 -17 -45 -52 -67
-79 -22 -27 -57 -67 -77 -89 -36 -39 -48 -66 -29 -66 4 0 19 -10 33 -23 13
-12 48 -42 78 -67 30 -25 66 -55 80 -67 14 -13 28 -23 32 -23 3 0 13 -6 20
-13 33 -32 289 -210 341 -236 15 -8 27 -18 27 -23 0 -4 4 -8 9 -8 8 0 74 -37
129 -72 26 -16 394 -200 437 -218 108 -45 334 -128 410 -150 63 -19 331 -90
355 -95 14 -3 36 -7 50 -10 14 -3 41 -8 60 -12 19 -4 37 -8 40 -8 3 -1 28 -5
55 -10 28 -4 57 -9 67 -11 9 -1 38 -6 65 -10 26 -3 57 -8 68 -10 11 -2 45 -7
75 -9 30 -3 70 -8 89 -10 154 -20 655 -27 846 -12 50 4 113 9 140 11 28 2 68
7 90 10 22 3 60 8 85 12 79 10 94 12 140 20 25 4 51 7 58 7 6 0 12 4 12 9 0 5
4 6 10 3 5 -3 35 1 67 9 32 8 72 17 88 20 17 2 30 5 30 6 0 1 7 3 16 5 9 1 43
11 75 20 33 10 64 18 69 19 34 8 125 39 220 77 61 24 113 42 118 41 4 -1 7 2
7 8 0 5 5 10 12 10 23 0 339 176 358 199 3 3 30 25 60 47 285 213 495 497 641
867 22 53 41 105 43 115 1 9 6 24 9 32 24 58 87 356 102 487 20 167 27 490 12
613 -4 36 -9 83 -12 105 -2 22 -7 56 -11 75 -4 19 -8 44 -9 55 -8 72 -114 423
-136 451 -6 7 -11 20 -13 31 -3 16 -28 69 -91 193 -10 19 -25 43 -33 53 -8 9
-12 17 -8 17 4 0 2 6 -4 13 -6 6 -35 50 -66 97 -141 215 -284 370 -479 523
-53 41 -122 88 -137 92 -10 4 -18 10 -18 15 0 4 -8 10 -17 13 -23 8 -98 50
-118 67 -8 7 -15 9 -15 4 0 -5 -4 -4 -8 2 -6 10 -231 114 -247 114 -4 0 -21 6
-38 14 -42 18 -147 54 -172 59 -11 2 -27 6 -35 9 -50 18 -248 66 -295 72 -16
2 -41 6 -55 9 -14 4 -38 9 -55 11 -16 3 -41 7 -55 10 -23 4 -139 19 -240 31
-25 3 -56 7 -70 10 -14 3 -50 7 -80 10 -30 4 -62 8 -71 11 -9 2 -36 7 -60 10
-24 3 -55 7 -69 9 -14 2 -45 6 -70 9 -25 4 -83 13 -130 21 -47 7 -101 16 -120
19 -19 3 -57 10 -85 16 -27 6 -61 13 -75 15 -14 3 -32 8 -40 11 -8 3 -24 8
-36 10 -33 6 -205 63 -244 81 -88 39 -178 87 -241 128 -71 46 -204 171 -254
240 -17 22 -32 42 -35 45 -24 24 -117 220 -126 265 -1 6 -7 29 -13 53 -9 33
-22 167 -22 227 0 52 15 176 31 250 7 33 13 65 14 70 1 6 4 15 8 20 5 8 29 87
32 105 5 26 99 194 123 218 7 7 13 16 13 20 0 8 101 113 149 155 47 41 210
146 237 153 13 3 24 10 24 16 0 5 5 6 10 3 6 -3 10 -1 10 4 0 6 3 10 8 9 4 -1
24 6 46 15 21 9 44 17 51 17 6 0 15 3 19 7 3 4 12 8 19 10 7 1 37 9 67 18 154
43 287 59 475 59 104 -1 272 -10 326 -18 13 -3 51 -8 84 -11 33 -4 71 -10 85
-12 14 -2 34 -5 45 -7 19 -3 73 -13 120 -23 11 -2 31 -6 45 -9 14 -2 61 -14
105 -25 44 -12 87 -22 95 -24 89 -20 444 -151 540 -200 25 -12 72 -35 105 -51
33 -16 66 -35 73 -41 7 -7 20 -13 27 -13 7 0 20 -6 27 -13 7 -7 29 -20 48 -29
19 -9 51 -27 70 -40 19 -13 47 -29 63 -37 15 -8 27 -18 27 -23 0 -4 6 -8 13
-8 7 0 23 -9 35 -20 12 -11 27 -20 34 -20 13 0 148 192 148 210 0 6 4 10 8 10
5 0 19 19 32 43 13 23 26 44 29 47 12 10 81 117 81 125 0 5 7 15 15 24 9 9 49
68 90 131 40 63 79 120 84 127 6 7 16 24 23 38 6 14 15 25 20 25 4 0 8 5 8 11
0 6 16 33 35 59 19 26 35 53 35 59 0 6 5 11 10 11 6 0 10 7 10 15 0 8 3 15 8
15 4 0 16 16 26 35 l20 36 -24 17 c-81 58 -224 153 -280 187 -36 21 -68 44
-72 49 -4 6 -8 7 -8 2 0 -5 -8 -2 -17 6 -10 8 -47 30 -83 48 -36 18 -67 36
-70 39 -3 4 -39 22 -80 40 -41 19 -77 37 -80 40 -3 3 -18 11 -35 18 -16 6 -83
34 -147 61 -65 28 -118 48 -118 45 0 -3 -6 -1 -12 4 -11 9 -192 73 -223 79 -5
1 -30 9 -55 17 -41 14 -112 34 -150 42 -8 2 -51 13 -96 24 -84 22 -214 48
-274 57 -19 2 -46 7 -60 10 -43 9 -153 25 -200 29 -25 2 -45 4 -45 5 0 1 -25
4 -55 6 -30 2 -75 6 -100 9 -55 6 -516 16 -521 10z"/>
<path d="M3426 7363 c-3 -4 -21 -8 -39 -9 -59 -5 -140 -35 -201 -76 -30 -21
-86 -78 -86 -88 0 -6 -4 -10 -9 -10 -13 0 -69 -116 -79 -166 -12 -55 -6 -191
10 -234 27 -69 58 -119 105 -168 42 -43 127 -102 158 -109 5 -1 33 -8 60 -16
171 -48 376 38 477 199 102 161 78 399 -54 533 -41 41 -128 107 -138 104 -3
-1 -20 5 -39 13 -18 8 -44 14 -58 14 -13 0 -33 5 -43 10 -13 7 -21 7 -25 0 -5
-8 -11 -8 -19 -1 -7 6 -16 8 -20 4z"/>
<path d="M3367 5604 c-1 -1 -33 -4 -72 -8 -38 -4 -94 -13 -122 -20 -29 -8 -53
-12 -53 -9 0 3 -7 0 -15 -7 -8 -7 -15 -10 -15 -6 0 7 -160 -52 -177 -66 -7 -6
-13 -8 -13 -5 0 6 -162 -81 -170 -92 -3 -3 -27 -21 -55 -40 -49 -33 -218 -198
-263 -256 -13 -17 -33 -47 -44 -67 -12 -21 -25 -38 -30 -38 -4 0 -8 -5 -8 -11
0 -6 -16 -37 -35 -70 -19 -32 -32 -59 -29 -59 2 0 -3 -14 -12 -32 -14 -26 -65
-167 -64 -175 0 -2 0 -4 -1 -5 -5 -17 -31 -162 -35 -193 -9 -81 -3 -269 10
-335 3 -13 8 -42 11 -65 9 -59 69 -234 106 -307 83 -166 216 -333 339 -426 19
-15 41 -33 48 -39 41 -39 256 -160 275 -155 4 1 7 -3 7 -10 0 -6 3 -9 6 -5 3
3 26 -3 50 -13 24 -11 44 -17 44 -15 0 3 16 -1 35 -9 19 -8 51 -17 72 -21 21
-3 45 -7 53 -10 68 -18 298 -25 400 -12 101 13 228 46 297 77 24 10 43 17 43
15 0 -7 175 88 178 97 2 4 9 8 14 8 11 0 99 63 152 110 103 89 216 227 272
330 10 19 24 42 30 50 6 8 26 53 44 100 18 47 36 94 41 105 7 19 19 62 25 94
2 8 6 26 10 40 13 48 15 76 19 254 2 97 0 177 -4 177 -4 0 -7 10 -6 23 1 12
-2 36 -7 52 -5 17 -11 46 -14 64 -17 101 -123 333 -201 441 -36 49 -139 166
-172 195 -19 16 -48 42 -65 57 -37 33 -204 144 -214 142 -4 -1 -19 7 -34 17
-14 10 -29 19 -33 19 -4 0 -21 6 -38 14 -43 18 -129 49 -147 53 -8 1 -44 9
-80 17 -36 8 -83 17 -105 20 -22 2 -40 5 -40 6 0 2 -206 6 -208 4z"/>
<path d="M548 3785 c-2 -2 -18 -6 -35 -10 -18 -3 -43 -9 -57 -15 -15 -5 -26
-8 -26 -6 0 7 -137 -68 -171 -94 -124 -94 -208 -226 -243 -380 -15 -63 -16
-236 -3 -270 4 -8 8 -26 11 -40 2 -14 12 -43 22 -65 10 -22 18 -42 18 -45 2
-15 70 -115 103 -151 70 -78 226 -179 276 -179 7 0 17 -3 21 -7 3 -4 12 -8 19
-9 7 -1 28 -5 47 -9 45 -9 180 -13 180 -5 0 3 15 5 33 4 43 -2 150 35 229 79
156 87 291 277 315 443 10 73 7 205 -7 265 -15 66 -80 203 -116 244 -14 17
-29 35 -32 40 -13 20 -129 115 -140 115 -7 0 -12 3 -12 8 0 7 -99 53 -124 58
-6 2 -36 9 -66 17 -47 13 -232 22 -242 12z"/>
</g>
</svg>
